<svg width="48.00000000000001" height="48.00000000000001" xmlns="http://www.w3.org/2000/svg">
 <g>
  <title>Layer 1</title>
  <text font-weight="bold" xml:space="preserve" text-anchor="start" font-family="'Syne'" font-size="15" id="svg_1" y="32.99998" x="2.50005" stroke-width="0" stroke="#000" fill="#000000">TEMO</text>
  <path id="svg_3" d="m12.94788,9.87495l-1.43303,-0.9007c-0.36156,-0.22703 -0.83797,-0.11776 -1.06579,0.24387l-0.56484,0.89902l2.74144,1.72184l0.56528,-0.8986c0.22695,-0.36206 0.11864,-0.83891 -0.24307,-1.06543l0,0zm-7.94206,8.0093l2.74159,1.72182l4.46834,-7.11323l-2.7429,-1.72227l-4.46703,7.11368l0,0zm-0.41878,2.18764l-0.06055,1.61728l1.43083,-0.75681l1.32965,-0.70205l-2.6449,-1.66215l-0.05502,1.50373l0,0l0,0z" stroke-width="0" stroke="#000" fill="#000000"/>
  <path id="svg_6" d="m29.38339,15.26001c0.76658,-0.88136 0.92066,-2.08411 0.50365,-3.09562l-1.53897,1.79465l-1.51704,-0.29495l-0.50267,-1.46135l1.53508,-1.79048c-1.05591,-0.26565 -2.21921,0.05506 -2.98241,0.93293c-0.80489,0.92549 -0.93661,2.20712 -0.43843,3.24694l-4.01146,4.613c-0.42684,0.49044 -0.37484,1.2343 0.11561,1.66097c0.49045,0.42637 1.23415,0.37484 1.66084,-0.11561l4.00676,-4.60845c1.10294,0.3555 2.36043,0.04766 3.16905,-0.88204l0,0z" stroke-width="0" stroke="#000" fill="#000000"/>
  <path id="svg_7" d="m35.33903,21.28837c0.26993,0.141 0.63829,0.4702 0.92355,0.34976c0.18711,-0.07796 0.2966,-0.51939 0.41285,-0.75175c0.87508,-1.74668 1.82614,-3.73333 2.51838,-5.43295c0,-0.07583 0.03975,-0.13445 -0.01931,-0.23754c0.38723,-0.63862 0.65009,-1.34027 1.07317,-2.05091c0.13399,-0.22582 0.2703,-0.53919 0.45824,-0.62948l0.3471,-0.14678c0.44126,-0.11496 0.76356,-0.11101 1.07122,0.18881c0.156,0.15288 0.22777,0.40504 0.37866,0.55685c0.10204,0.10369 0.49085,0.35874 0.63544,0.31931c0.11234,-0.03076 0.20493,-0.14542 0.28368,-0.29068l0.27421,-0.5133c0.07687,-0.14602 0.12061,-0.28657 0.08476,-0.39879c-0.04614,-0.1445 -0.46967,-0.3353 -0.61147,-0.36514c-0.20808,-0.04522 -0.45471,0.03228 -0.66662,-0.01644c-0.41646,-0.097 -0.59614,-0.36803 -0.74192,-0.80626c-1.02748,-0.61197 -2.41077,-1.00985 -4.02139,-0.49655c-0.4369,0.13933 -0.8557,0.245 -1.1429,0.52807c-0.05756,0.16445 0.05629,0.19719 0.17569,0.19521c-0.09341,0.08619 -0.2443,0.13613 -0.1572,0.33849c0.98299,-0.45742 2.89186,-0.61547 3.02149,0.32083c0.02833,0.20846 -0.15563,0.49548 -0.26873,0.73256c-0.35657,0.74794 -0.79227,1.35473 -1.10826,2.03218c-0.11745,0.0067 -0.14421,0.07172 -0.20688,0.11451c-1.0259,1.51675 -2.14761,3.4093 -3.11242,5.10694c-0.1285,0.22581 -0.43262,0.55959 -0.39482,0.76073c0.05674,0.30774 0.52362,0.45102 0.79347,0.59233l0,0z" stroke-width="0" stroke="#000" fill="#000000"/>
  <path id="svg_8" d="m69.63507,13.70006c0.03484,0.01796 0.08238,0.0599 0.1192,0.04456c0.02415,-0.00993 0.03828,-0.06617 0.05329,-0.09577c0.11294,-0.22251 0.2357,-0.4756 0.32504,-0.69212c0,-0.00966 0.00513,-0.01713 -0.00249,-0.03026c0.04998,-0.08136 0.08391,-0.17074 0.13851,-0.26127c0.01729,-0.02877 0.03489,-0.06869 0.05914,-0.08019l0.0448,-0.0187c0.05695,-0.01465 0.09855,-0.01414 0.13826,0.02405c0.02013,0.01948 0.0294,0.0516 0.04887,0.07094c0.01317,0.01321 0.06335,0.0457 0.08201,0.04068c0.0145,-0.00392 0.02645,-0.01852 0.03661,-0.03703l0.03539,-0.06539c0.00992,-0.0186 0.01557,-0.03651 0.01094,-0.0508c-0.00596,-0.01841 -0.06062,-0.04271 -0.07892,-0.04652c-0.02686,-0.00576 -0.05869,0.00411 -0.08604,-0.00209c-0.05375,-0.01236 -0.07694,-0.04688 -0.09576,-0.10271c-0.13261,-0.07796 -0.31115,-0.12865 -0.51903,-0.06326c-0.05639,0.01775 -0.11044,0.03121 -0.14751,0.06727c-0.00743,0.02095 0.00726,0.02512 0.02268,0.02487c-0.01206,0.01098 -0.03153,0.01734 -0.02029,0.04312c0.12687,-0.05827 0.37325,-0.07841 0.38998,0.04087c0.00366,0.02656 -0.02009,0.06312 -0.03468,0.09332c-0.04602,0.09528 -0.10226,0.17258 -0.14304,0.25889c-0.01516,0.00085 -0.01861,0.00914 -0.0267,0.01459c-0.13241,0.19322 -0.27719,0.43432 -0.40171,0.65059c-0.01659,0.02877 -0.05584,0.07129 -0.05096,0.09691c0.00732,0.0392 0.06758,0.05746 0.10241,0.07546l0,0z" stroke-width="0" stroke="#000" fill="#000000"/>
 </g>

</svg>